<svg width="720" height="208" viewBox="0 0 720 208" fill="none" xmlns="http://www.w3.org/2000/svg">
<rect width="188" height="72" transform="translate(60 135.532) rotate(-4)" fill="#177359"/>
<path d="M94.8356 186.434C93.5154 184.987 92.3778 183.399 91.4228 181.669C90.4906 179.959 89.7569 178.182 89.2216 176.337C88.6863 174.493 88.3546 172.656 88.2266 170.825C88.0987 168.995 88.1714 167.13 88.4448 165.229C88.7394 163.326 89.2286 161.453 89.9123 159.609C90.6173 157.763 91.5227 156.031 92.6286 154.414L98.0553 154.035C96.6817 155.799 95.5786 157.608 94.7459 159.463C93.9331 161.295 93.3565 163.142 93.0163 165.005C92.6974 166.867 92.6012 168.702 92.7277 170.511C92.8542 172.32 93.2155 174.123 93.8117 175.92C94.4078 177.718 95.2359 179.467 96.2957 181.168C97.3769 182.867 98.6991 184.496 100.262 186.055L94.8356 186.434ZM101.806 166.155C102.288 166.014 102.843 165.847 103.472 165.653C104.098 165.439 104.651 165.239 105.13 165.056C105.65 164.849 106.347 164.576 107.222 164.236C108.096 163.897 109.056 163.552 110.101 163.201C111.167 162.848 112.236 162.538 113.308 162.271C114.401 162.002 115.437 161.833 116.416 161.765C118.097 161.647 119.588 161.864 120.888 162.415C122.208 162.942 123.26 163.767 124.044 164.888C124.828 166.01 125.277 167.379 125.39 168.997C125.491 170.444 125.264 171.785 124.709 173.022C124.175 174.257 123.301 175.366 122.087 176.349C120.873 177.332 119.327 178.167 117.45 178.854C115.597 179.561 113.409 180.078 110.887 180.404L108.92 176.596C110.747 176.425 112.417 176.148 113.93 175.764C115.464 175.379 116.778 174.892 117.87 174.302C118.982 173.69 119.818 172.958 120.379 172.106C120.961 171.252 121.214 170.294 121.14 169.23C121.083 168.421 120.843 167.732 120.418 167.163C120.013 166.571 119.458 166.129 118.753 165.836C118.049 165.543 117.228 165.429 116.292 165.495C115.547 165.547 114.724 165.701 113.822 165.956C112.92 166.212 111.99 166.523 111.032 166.889C110.095 167.254 109.171 167.639 108.258 168.045C107.345 168.451 106.496 168.842 105.71 169.218C104.923 169.594 104.272 169.917 103.757 170.189L101.806 166.155ZM137.736 158.382C135.863 158.513 134.364 158.179 133.239 157.381C132.112 156.561 131.475 155.248 131.327 153.441L135.03 153.182C135.11 154.01 135.373 154.569 135.821 154.859C136.291 155.146 136.866 155.267 137.547 155.219C138.27 155.168 138.823 154.969 139.205 154.622C139.608 154.273 139.792 153.683 139.755 152.851L143.458 152.592C143.541 153.784 143.356 154.802 142.902 155.647C142.467 156.468 141.817 157.112 140.952 157.579C140.085 158.025 139.013 158.292 137.736 158.382ZM161.662 176.212L162.179 171.685C163.988 171.558 165.572 171.426 166.931 171.288C168.29 171.151 169.435 171.006 170.366 170.856C171.317 170.704 172.075 170.533 172.639 170.344C173.202 170.134 173.592 169.903 173.81 169.653C174.087 169.334 174.277 168.839 174.38 168.169C174.483 167.499 174.49 166.536 174.403 165.281C174.347 164.493 174.246 163.805 174.098 163.217C173.971 162.627 173.798 162.136 173.578 161.746C173.358 161.355 173.103 161.073 172.813 160.901C172.543 160.706 172.238 160.62 171.897 160.644C171.557 160.668 171.245 160.807 170.964 161.062C170.681 161.296 170.457 161.611 170.292 162.007C170.127 162.404 170.062 162.847 170.096 163.336C170.116 163.613 170.207 163.852 170.371 164.055C170.535 164.257 170.78 164.4 171.107 164.485C171.434 164.569 171.842 164.594 172.331 164.559C172.799 164.527 173.285 164.439 173.788 164.297C174.312 164.132 174.789 163.928 175.221 163.684L175.614 167.473C175.292 167.753 174.914 168.004 174.48 168.226C174.045 168.428 173.576 168.6 173.073 168.742C172.589 168.861 172.092 168.939 171.581 168.974C170.453 169.053 169.464 168.973 168.613 168.733C167.782 168.47 167.119 168.003 166.623 167.332C166.127 166.661 165.836 165.719 165.751 164.506C165.686 163.57 165.781 162.633 166.036 161.695C166.29 160.737 166.689 159.864 167.232 159.078C167.775 158.27 168.435 157.614 169.212 157.111C169.988 156.586 170.865 156.289 171.844 156.221C173.291 156.12 174.513 156.462 175.509 157.248C176.525 158.011 177.306 159.09 177.852 160.484C178.419 161.856 178.762 163.404 178.883 165.128C178.953 166.128 178.925 167.114 178.801 168.085C178.696 169.033 178.51 169.891 178.243 170.658C177.997 171.423 177.698 172.043 177.346 172.517C176.975 173.013 176.365 173.462 175.516 173.864C174.667 174.265 173.579 174.609 172.252 174.894C170.946 175.178 169.402 175.425 167.62 175.635C165.861 175.865 163.875 176.057 161.662 176.212ZM161.662 176.212C159.364 176.373 157.404 176.328 155.782 176.078C154.184 175.847 152.862 175.448 151.817 174.879C150.792 174.288 150.026 173.572 149.518 172.731C149.01 171.889 148.719 170.947 148.646 169.905C148.599 169.224 148.604 168.539 148.663 167.85C148.742 167.139 148.843 166.448 148.967 165.776C149.113 165.103 149.241 164.495 149.353 163.953L153.408 164.599C153.35 164.988 153.283 165.41 153.208 165.865C153.132 166.319 153.078 166.761 153.044 167.191C153.008 167.6 153.002 167.975 153.026 168.315C153.081 169.103 153.407 169.785 154.003 170.364C154.62 170.92 155.589 171.322 156.911 171.572C158.231 171.801 159.988 171.838 162.179 171.685L163.059 175.088L161.662 176.212ZM188.409 154.838C186.537 154.969 185.038 154.635 183.913 153.837C182.786 153.018 182.149 151.705 182.001 149.897L185.704 149.638C185.783 150.467 186.047 151.026 186.495 151.315C186.964 151.603 187.539 151.723 188.22 151.676C188.944 151.625 189.497 151.426 189.879 151.078C190.282 150.729 190.465 150.139 190.429 149.308L194.132 149.049C194.215 150.241 194.029 151.259 193.575 152.103C193.141 152.925 192.491 153.569 191.625 154.036C190.758 154.481 189.686 154.749 188.409 154.838ZM208.43 178.748C208.819 177.887 209.118 177.117 209.328 176.44C209.56 175.782 209.656 175.176 209.618 174.623C209.583 174.133 209.472 173.767 209.284 173.523C209.097 173.301 208.796 173.119 208.38 172.977C207.965 172.857 207.389 172.726 206.652 172.585C205.546 172.363 204.572 172.046 203.731 171.634C202.888 171.201 202.176 170.652 201.595 169.987C201.013 169.322 200.553 168.542 200.212 167.646C199.891 166.727 199.69 165.683 199.608 164.513C199.493 162.874 199.608 161.454 199.952 160.254C200.294 159.033 200.821 158.012 201.534 157.192C202.268 156.371 203.154 155.742 204.193 155.306C205.23 154.849 206.387 154.575 207.664 154.486C208.622 154.419 209.522 154.452 210.366 154.586C211.23 154.718 212.102 154.956 212.982 155.301L211.866 159.068C211.056 158.804 210.337 158.608 209.708 158.481C209.098 158.331 208.464 158.28 207.804 158.326C206.932 158.387 206.234 158.649 205.71 159.114C205.187 159.578 204.824 160.202 204.622 160.986C204.42 161.77 204.356 162.684 204.429 163.726C204.479 164.45 204.577 165.085 204.722 165.63C204.889 166.175 205.125 166.65 205.431 167.056C205.759 167.461 206.199 167.794 206.752 168.055C207.305 168.315 208.014 168.512 208.879 168.644C210.198 168.851 211.222 169.132 211.953 169.487C212.703 169.82 213.238 170.274 213.556 170.851C213.894 171.405 214.093 172.107 214.152 172.959C214.221 173.937 214.128 174.896 213.872 175.833C213.64 176.79 213.326 177.657 212.931 178.433L208.43 178.748ZM219.352 177.727L213.925 178.107C215.278 176.344 216.36 174.547 217.173 172.715C218.007 170.882 218.584 169.034 218.903 167.173C219.243 165.31 219.35 163.474 219.223 161.665C219.097 159.856 218.746 158.052 218.171 156.253C217.596 154.455 216.768 152.705 215.687 151.006C214.604 149.285 213.271 147.646 211.686 146.089L217.081 145.712C218.423 147.158 219.56 148.746 220.494 150.477C221.449 152.207 222.194 153.994 222.729 155.839C223.265 157.683 223.596 159.52 223.724 161.351C223.852 163.181 223.78 165.046 223.506 166.947C223.233 168.848 222.753 170.71 222.068 172.533C221.385 174.377 220.479 176.109 219.352 177.727Z" fill="#F6F7FB"/>
<rect width="186" height="72" transform="translate(374.97 80.709) rotate(12)" fill="#ECC615"/>
<path d="M394.425 139.241C393.555 137.486 392.9 135.646 392.458 133.72C392.034 131.819 391.818 129.909 391.812 127.988C391.806 126.068 391.993 124.21 392.375 122.415C392.756 120.621 393.34 118.848 394.127 117.096C394.935 115.348 395.921 113.682 397.087 112.098C398.273 110.518 399.621 109.103 401.13 107.854L406.451 108.985C404.644 110.302 403.085 111.737 401.773 113.29C400.487 114.827 399.424 116.444 398.583 118.141C397.764 119.842 397.165 121.58 396.788 123.354C396.411 125.127 396.262 126.96 396.339 128.852C396.417 130.745 396.731 132.654 397.281 134.581C397.852 136.513 398.673 138.443 399.746 140.373L394.425 139.241ZM430.401 116.594C430.01 117.1 429.633 117.642 429.27 118.219C428.908 118.796 428.577 119.325 428.278 119.807C427.587 120.903 426.793 122.076 425.895 123.325C425.018 124.578 424.072 125.794 423.058 126.974C422.069 128.138 421.034 129.161 419.952 130.044C418.84 130.963 417.535 131.875 416.034 132.777C414.559 133.663 412.974 134.449 411.28 135.136C409.611 135.806 407.904 136.294 406.16 136.599L403.37 132.179C405.117 131.961 406.81 131.591 408.448 131.066C410.086 130.542 411.632 129.889 413.085 129.108C414.537 128.326 415.841 127.48 416.994 126.569C418.253 125.571 419.43 124.393 420.526 123.034C421.647 121.658 422.652 120.214 423.54 118.702C424.45 117.194 425.198 115.728 425.784 114.304L430.401 116.594ZM438.745 129.36L436.237 126.537L438.851 124.704L435.917 123.426L437.789 120.16L440.358 122.08L440.641 118.902L444.365 119.693L443.331 122.712L446.428 121.997L446.841 125.748L443.64 125.722L445.252 128.453L441.812 130.012L440.889 126.97L438.745 129.36ZM454.104 130.04C453.206 129.849 452.42 129.497 451.744 128.982C451.089 128.473 450.616 127.827 450.324 127.045C450.032 126.263 449.992 125.371 450.205 124.37C450.423 123.347 450.836 122.53 451.446 121.918C452.06 121.285 452.785 120.851 453.621 120.614C454.461 120.356 455.319 120.321 456.195 120.507C457.072 120.693 457.833 121.062 458.479 121.614C459.146 122.17 459.621 122.86 459.904 123.683C460.191 124.486 460.226 125.398 460.009 126.421C459.796 127.423 459.387 128.219 458.782 128.81C458.197 129.405 457.489 129.811 456.658 130.027C455.852 130.227 455.001 130.231 454.104 130.04ZM454.785 127.143C455.307 127.253 455.768 127.188 456.168 126.946C456.594 126.687 456.866 126.276 456.986 125.713C457.106 125.15 457.024 124.663 456.74 124.254C456.477 123.849 456.085 123.591 455.563 123.48C455.042 123.369 454.568 123.443 454.142 123.702C453.716 123.96 453.444 124.371 453.324 124.935C453.204 125.498 453.286 125.984 453.57 126.394C453.858 126.782 454.263 127.032 454.785 127.143ZM471.233 149.221L463.256 124.723L488.453 130.079L471.233 149.221ZM471.759 146.748L486.027 130.872L465.15 126.434L471.759 146.748ZM494.621 138.652C493.724 138.462 492.937 138.109 492.261 137.595C491.606 137.085 491.133 136.439 490.841 135.657C490.549 134.875 490.51 133.984 490.723 132.982C490.94 131.96 491.354 131.142 491.963 130.53C492.578 129.898 493.303 129.463 494.138 129.226C494.978 128.968 495.836 128.933 496.713 129.119C497.589 129.305 498.35 129.674 498.996 130.226C499.663 130.782 500.138 131.472 500.421 132.295C500.709 133.098 500.744 134.011 500.526 135.033C500.313 136.035 499.904 136.831 499.299 137.422C498.714 138.018 498.006 138.423 497.175 138.639C496.37 138.839 495.518 138.843 494.621 138.652ZM495.302 135.755C495.824 135.866 496.285 135.8 496.685 135.558C497.111 135.3 497.384 134.889 497.503 134.325C497.623 133.762 497.541 133.275 497.257 132.866C496.995 132.461 496.602 132.203 496.081 132.093C495.559 131.982 495.085 132.055 494.66 132.314C494.234 132.572 493.961 132.983 493.841 133.547C493.722 134.11 493.804 134.597 494.087 135.006C494.376 135.394 494.78 135.644 495.302 135.755ZM505.871 143.628L503.364 140.805L505.978 138.973L503.043 137.695L504.915 134.428L507.484 136.349L507.767 133.17L511.492 133.962L510.458 136.981L513.554 136.265L513.967 140.017L510.767 139.991L512.378 142.721L508.939 144.28L508.015 141.238L505.871 143.628ZM514.463 164.756L509.142 163.625C510.928 162.304 512.464 160.874 513.75 159.338C515.057 157.805 516.12 156.188 516.94 154.487C517.781 152.79 518.389 151.055 518.766 149.281C519.143 147.507 519.304 145.676 519.247 143.789C519.19 141.901 518.876 139.991 518.305 138.06C517.739 136.107 516.909 134.164 515.815 132.231L521.105 133.355C521.996 135.115 522.651 136.955 523.072 138.877C523.513 140.802 523.737 142.726 523.743 144.646C523.749 146.567 523.561 148.424 523.18 150.219C522.798 152.014 522.214 153.787 521.427 155.539C520.641 157.291 519.667 158.949 518.506 160.512C517.34 162.096 515.993 163.511 514.463 164.756Z" fill="#222125"/>
<path d="M551.836 65.4237C550.515 63.9763 549.378 62.3878 548.423 60.6582C547.491 58.9484 546.757 57.1712 546.222 55.3267C545.686 53.4822 545.355 51.6449 545.227 49.8147C545.099 47.9845 545.171 46.1189 545.445 44.2179C545.739 42.3153 546.229 40.442 546.912 38.5978C547.617 36.7521 548.523 35.0207 549.629 33.4037L555.055 33.0242C553.682 34.7883 552.579 36.5977 551.746 38.4523C550.933 40.2841 550.357 42.1315 550.016 43.9944C549.697 45.8559 549.601 47.691 549.728 49.5C549.854 51.3089 550.215 53.1121 550.812 54.9095C551.408 56.707 552.236 58.4561 553.296 60.157C554.377 61.8564 555.699 63.4855 557.262 65.0442L551.836 65.4237ZM558.962 57.0021L556.696 57.1606L556.115 48.8608L571.118 47.8117L571.277 50.0782L558.54 50.9688L558.962 57.0021ZM574.771 57.725L573.137 34.3581L596.504 32.7241L598.138 56.0911L574.771 57.725ZM599.329 61.2044L599.055 57.278L614.186 56.2199L614.461 60.1464L599.329 61.2044ZM614.94 54.9162L613.306 31.5493L636.673 29.9153L638.307 53.2822L614.94 54.9162ZM644.157 58.968L638.73 59.3475C640.082 57.5848 641.165 55.7876 641.978 53.9558C642.812 52.1224 643.389 50.2751 643.708 48.4136C644.048 46.5507 644.155 44.7147 644.028 42.9058C643.902 41.0969 643.551 39.293 642.976 37.494C642.401 35.6951 641.573 33.9459 640.492 32.2465C639.409 30.5259 638.076 28.8869 636.491 27.3296L641.886 26.9524C643.228 28.3983 644.365 29.9869 645.299 31.7179C646.254 33.4475 646.999 35.2346 647.534 37.0791C648.07 38.9235 648.401 40.7609 648.529 42.5911C648.657 44.4213 648.584 46.2869 648.311 48.1879C648.038 50.089 647.558 51.9509 646.873 53.7738C646.189 55.618 645.284 57.3494 644.157 58.968Z" fill="#222125"/>
<path d="M142.836 68.0038C141.515 66.5564 140.378 64.9678 139.423 63.2382C138.491 61.5284 137.757 59.7513 137.222 57.9068C136.686 56.0623 136.355 54.225 136.227 52.3948C136.099 50.5646 136.171 48.699 136.445 46.7979C136.739 44.8954 137.229 43.0221 137.912 41.1779C138.617 39.3322 139.523 37.6008 140.629 35.9837L146.055 35.6043C144.682 37.3684 143.579 39.1777 142.746 41.0323C141.933 42.8642 141.357 44.7116 141.016 46.5745C140.697 48.4359 140.601 50.2711 140.728 52.08C140.854 53.889 141.215 55.6921 141.812 57.4896C142.408 59.2871 143.236 61.0362 144.296 62.7371C145.377 64.4365 146.699 66.0656 148.262 67.6243L142.836 68.0038ZM178.271 61.6445L178.376 63.1448L146.454 65.377L146.349 63.8767L178.271 61.6445ZM218.564 58.8269L218.669 60.3272L186.747 62.5595L186.642 61.0591L218.564 58.8269ZM223.007 43.4715L219.818 41.449L221.826 38.9669L218.653 38.5473L219.552 34.8916L222.551 36.0292L221.947 32.8957L225.746 32.6301L225.584 35.8172L228.363 34.2755L229.794 37.7682L226.71 38.6254L229.012 40.8062L226.136 43.2528L224.409 40.5827L223.007 43.4715ZM237.09 61.4129L231.663 61.7924C233.015 60.0297 234.098 58.2325 234.911 56.4007C235.745 54.5674 236.321 52.72 236.64 50.8585C236.981 48.9956 237.087 47.1597 236.961 45.3508C236.834 43.5418 236.484 41.7379 235.909 39.939C235.334 38.14 234.506 36.3908 233.425 34.6915C232.342 32.9708 231.009 31.3318 229.424 29.7746L234.819 29.3973C236.16 30.8433 237.298 32.4318 238.232 34.1629C239.187 35.8925 239.932 37.6795 240.467 39.524C241.002 41.3685 241.334 43.2058 241.462 45.036C241.59 46.8662 241.517 48.7318 241.244 50.6329C240.97 52.5339 240.491 54.3959 239.806 56.2188C239.122 58.063 238.217 59.7943 237.09 61.4129ZM253.216 54.0621L252.964 50.4549L263.552 34.8944L252.284 35.6823L251.987 31.4367L269.288 30.2269L269.538 33.8021L258.923 49.4287L270.383 48.6274L270.677 52.8411L253.216 54.0621ZM281.384 52.0924L281.148 48.7086L288.787 38.6793L280.487 39.2597L280.208 35.2694L294.254 34.2873L294.488 37.6391L286.819 47.7025L295.151 47.1199L295.43 51.1102L281.384 52.0924ZM306.028 50.3691L305.791 46.9854L313.43 36.9561L305.131 37.5364L304.852 33.5462L318.897 32.564L319.132 35.9158L311.463 45.9793L319.795 45.3967L320.074 49.3869L306.028 50.3691Z" fill="#222125"/>
</svg>
