<svg width="276" height="168" viewBox="0 0 276 168" fill="none" xmlns="http://www.w3.org/2000/svg">
<rect width="130.333" height="50.2222" transform="translate(137.919 85.1699) rotate(-4)" fill="#177359"/>
<path d="M162.074 119.992C161.157 118.987 160.367 117.884 159.704 116.683C159.057 115.496 158.547 114.262 158.176 112.981C157.804 111.7 157.574 110.424 157.485 109.153C157.396 107.882 157.446 106.586 157.636 105.266C157.841 103.945 158.181 102.644 158.655 101.363C159.145 100.082 159.774 98.8793 160.542 97.7563L164.31 97.4928C163.356 98.7179 162.59 99.9744 162.012 101.262C161.447 102.534 161.047 103.817 160.811 105.111C160.589 106.404 160.523 107.678 160.61 108.934C160.698 110.191 160.949 111.443 161.363 112.691C161.777 113.939 162.352 115.154 163.088 116.335C163.839 117.515 164.757 118.646 165.843 119.729L162.074 119.992ZM166.915 105.909C167.25 105.812 167.635 105.696 168.071 105.561C168.506 105.412 168.89 105.274 169.223 105.147C169.584 105.002 170.068 104.813 170.676 104.577C171.283 104.342 171.949 104.102 172.675 103.858C173.415 103.613 174.158 103.398 174.902 103.212C175.661 103.026 176.381 102.908 177.06 102.861C178.228 102.779 179.263 102.93 180.166 103.312C181.083 103.679 181.814 104.251 182.358 105.03C182.903 105.809 183.214 106.76 183.293 107.883C183.363 108.888 183.205 109.82 182.82 110.678C182.449 111.536 181.842 112.306 180.999 112.989C180.155 113.671 179.082 114.251 177.779 114.729C176.492 115.22 174.972 115.578 173.221 115.805L171.855 113.16C173.124 113.042 174.284 112.849 175.334 112.583C176.4 112.315 177.312 111.977 178.07 111.567C178.842 111.142 179.423 110.634 179.813 110.042C180.217 109.449 180.393 108.784 180.341 108.045C180.302 107.483 180.135 107.005 179.84 106.609C179.559 106.198 179.173 105.891 178.684 105.688C178.194 105.484 177.625 105.406 176.974 105.451C176.457 105.487 175.885 105.594 175.259 105.771C174.633 105.949 173.987 106.165 173.322 106.419C172.671 106.673 172.029 106.94 171.395 107.222C170.762 107.504 170.172 107.776 169.626 108.037C169.08 108.298 168.627 108.522 168.269 108.711L166.915 105.909ZM191.866 100.511C190.565 100.602 189.525 100.371 188.743 99.8163C187.961 99.2473 187.518 98.3352 187.416 97.08L189.987 96.9002C190.042 97.4755 190.225 97.8637 190.537 98.0647C190.862 98.2647 191.262 98.3482 191.735 98.3151C192.237 98.28 192.621 98.1417 192.886 97.9004C193.166 97.6581 193.294 97.2482 193.268 96.6708L195.84 96.491C195.898 97.3186 195.769 98.0256 195.453 98.612C195.152 99.1826 194.7 99.63 194.099 99.9542C193.497 100.264 192.753 100.449 191.866 100.511ZM208.481 112.894L208.841 109.75C210.097 109.662 211.197 109.57 212.141 109.474C213.085 109.379 213.88 109.279 214.526 109.174C215.187 109.068 215.713 108.95 216.105 108.818C216.495 108.672 216.766 108.512 216.918 108.338C217.11 108.117 217.242 107.774 217.313 107.308C217.385 106.843 217.39 106.174 217.329 105.302C217.291 104.755 217.22 104.278 217.117 103.869C217.029 103.459 216.909 103.119 216.756 102.847C216.604 102.576 216.427 102.38 216.225 102.261C216.038 102.125 215.826 102.066 215.589 102.082C215.353 102.099 215.137 102.196 214.941 102.373C214.745 102.535 214.589 102.754 214.475 103.029C214.36 103.305 214.315 103.612 214.339 103.952C214.352 104.144 214.416 104.311 214.53 104.451C214.643 104.592 214.814 104.691 215.04 104.749C215.267 104.808 215.551 104.825 215.891 104.801C216.216 104.779 216.553 104.718 216.903 104.619C217.266 104.505 217.598 104.363 217.898 104.193L218.171 106.825C217.947 107.019 217.684 107.193 217.383 107.348C217.081 107.488 216.755 107.607 216.406 107.706C216.07 107.789 215.725 107.843 215.37 107.867C214.587 107.922 213.9 107.866 213.309 107.7C212.732 107.517 212.271 107.193 211.926 106.727C211.582 106.261 211.38 105.607 211.321 104.765C211.276 104.114 211.342 103.464 211.519 102.813C211.695 102.147 211.972 101.541 212.35 100.995C212.726 100.434 213.185 99.9784 213.725 99.6288C214.263 99.2644 214.873 99.0584 215.553 99.0109C216.557 98.9406 217.406 99.1783 218.097 99.724C218.803 100.254 219.345 101.003 219.725 101.972C220.118 102.924 220.357 103.999 220.44 105.196C220.489 105.891 220.47 106.575 220.383 107.25C220.311 107.908 220.182 108.504 219.996 109.036C219.825 109.568 219.618 109.999 219.373 110.327C219.115 110.672 218.692 110.984 218.102 111.263C217.513 111.542 216.757 111.78 215.836 111.978C214.929 112.175 213.856 112.347 212.619 112.493C211.398 112.652 210.018 112.786 208.481 112.894ZM208.481 112.894C206.885 113.005 205.524 112.974 204.398 112.8C203.288 112.64 202.37 112.363 201.645 111.968C200.933 111.558 200.401 111.06 200.048 110.476C199.695 109.892 199.493 109.238 199.443 108.513C199.41 108.04 199.414 107.565 199.454 107.087C199.509 106.593 199.579 106.113 199.666 105.646C199.767 105.179 199.856 104.757 199.933 104.38L202.749 104.829C202.709 105.099 202.663 105.392 202.61 105.708C202.558 106.023 202.52 106.33 202.497 106.629C202.472 106.913 202.468 107.173 202.484 107.41C202.523 107.956 202.749 108.431 203.163 108.832C203.591 109.218 204.264 109.498 205.182 109.671C206.099 109.83 207.319 109.856 208.841 109.75L209.452 112.113L208.481 112.894ZM227.056 98.0506C225.756 98.1415 224.715 97.9098 223.933 97.3556C223.151 96.7866 222.709 95.8745 222.606 94.6193L225.177 94.4395C225.232 95.0148 225.416 95.403 225.727 95.604C226.053 95.804 226.452 95.8874 226.925 95.8544C227.427 95.8192 227.811 95.681 228.076 95.4397C228.357 95.1973 228.484 94.7875 228.458 94.2101L231.03 94.0302C231.088 94.8578 230.959 95.5649 230.643 96.1512C230.342 96.7218 229.89 97.1692 229.289 97.4934C228.687 97.8028 227.943 97.9886 227.056 98.0506ZM240.959 114.654C241.23 114.056 241.437 113.522 241.583 113.052C241.744 112.595 241.811 112.174 241.784 111.79C241.76 111.45 241.683 111.196 241.552 111.027C241.423 110.872 241.213 110.746 240.924 110.647C240.636 110.563 240.236 110.473 239.725 110.375C238.956 110.22 238.28 110 237.696 109.715C237.11 109.414 236.616 109.033 236.212 108.571C235.809 108.109 235.489 107.567 235.252 106.945C235.029 106.307 234.89 105.582 234.833 104.769C234.753 103.631 234.833 102.645 235.071 101.812C235.309 100.963 235.675 100.255 236.17 99.6854C236.68 99.1152 237.295 98.6786 238.017 98.3757C238.737 98.058 239.541 97.8681 240.427 97.8061C241.092 97.7596 241.718 97.7827 242.303 97.8754C242.904 97.9671 243.509 98.1327 244.12 98.3721L243.345 100.988C242.783 100.805 242.283 100.669 241.847 100.581C241.423 100.476 240.983 100.44 240.525 100.472C239.919 100.515 239.434 100.697 239.07 101.02C238.707 101.342 238.455 101.776 238.315 102.32C238.175 102.864 238.13 103.499 238.181 104.223C238.216 104.725 238.284 105.166 238.384 105.545C238.5 105.923 238.664 106.253 238.877 106.536C239.105 106.817 239.41 107.048 239.794 107.229C240.178 107.41 240.67 107.546 241.271 107.638C242.187 107.782 242.898 107.977 243.406 108.224C243.927 108.455 244.298 108.77 244.519 109.171C244.754 109.555 244.892 110.043 244.933 110.634C244.981 111.314 244.916 111.979 244.739 112.63C244.577 113.295 244.359 113.897 244.085 114.436L240.959 114.654ZM248.544 113.946L244.775 114.209C245.715 112.985 246.466 111.737 247.031 110.465C247.61 109.192 248.01 107.909 248.232 106.616C248.468 105.323 248.542 104.048 248.455 102.792C248.367 101.535 248.123 100.283 247.724 99.0335C247.325 97.7842 246.75 96.5695 245.999 95.3894C245.247 94.1945 244.321 93.0563 243.221 91.9748L246.967 91.7129C247.899 92.717 248.689 93.8201 249.337 95.0223C250 96.2234 250.518 97.4644 250.889 98.7453C251.261 100.026 251.491 101.302 251.58 102.573C251.669 103.844 251.619 105.14 251.429 106.46C251.239 107.78 250.906 109.073 250.43 110.339C249.956 111.62 249.327 112.822 248.544 113.946Z" fill="#F6F7FB"/>
<rect width="129.333" height="50.2222" transform="translate(21.9419 90.5264) rotate(12)" fill="#ECC615"/>
<path d="M35.5623 130.658C34.9581 129.439 34.5028 128.161 34.1964 126.823C33.9014 125.504 33.7517 124.177 33.7475 122.843C33.7432 121.509 33.8735 120.219 34.1384 118.973C34.4033 117.727 34.8089 116.495 35.3553 115.279C35.9162 114.065 36.6013 112.908 37.4107 111.808C38.2346 110.711 39.1704 109.728 40.2182 108.861L43.9134 109.646C42.6588 110.561 41.5761 111.558 40.6652 112.636C39.772 113.703 39.0335 114.826 38.4498 116.005C37.8806 117.186 37.4651 118.393 37.2033 119.625C36.9414 120.856 36.8375 122.129 36.8914 123.443C36.9453 124.757 37.1632 126.083 37.5452 127.422C37.9416 128.763 38.5124 130.104 39.2576 131.443L35.5623 130.658ZM60.5452 114.931C60.2736 115.282 60.0119 115.658 59.7601 116.059C59.5083 116.46 59.2787 116.827 59.0713 117.162C58.5914 117.923 58.0397 118.737 57.4162 119.604C56.8071 120.475 56.1504 121.32 55.4461 122.139C54.7594 122.947 54.0404 123.658 53.2892 124.271C52.5173 124.909 51.6104 125.542 50.5684 126.169C49.544 126.784 48.4435 127.33 47.2668 127.807C46.1076 128.272 44.9224 128.611 43.7111 128.823L41.7737 125.753C42.9872 125.602 44.1627 125.345 45.3003 124.981C46.4379 124.617 47.5112 124.163 48.5201 123.62C49.5291 123.078 50.434 122.49 51.2349 121.857C52.1091 121.165 52.9267 120.347 53.6878 119.403C54.4664 118.447 55.1642 117.445 55.7812 116.394C56.4127 115.347 56.932 114.329 57.3391 113.34L60.5452 114.931ZM66.3397 123.796L64.5982 121.835L66.4135 120.563L64.3758 119.675L65.6757 117.407L67.4597 118.74L67.6563 116.533L70.243 117.083L69.5247 119.179L71.6751 118.682L71.9618 121.288L69.7392 121.27L70.8583 123.166L68.4699 124.249L67.8285 122.136L66.3397 123.796ZM77.0055 124.268C76.3824 124.136 75.8362 123.891 75.3669 123.534C74.912 123.179 74.5833 122.731 74.3806 122.188C74.178 121.645 74.1506 121.026 74.2984 120.33C74.4493 119.62 74.7366 119.053 75.1601 118.628C75.5867 118.188 76.0901 117.887 76.6703 117.722C77.2536 117.543 77.8495 117.518 78.4582 117.648C79.0668 117.777 79.5954 118.033 80.0441 118.416C80.5073 118.803 80.8371 119.282 81.0336 119.854C81.2332 120.411 81.2575 121.045 81.1066 121.755C80.9587 122.45 80.6746 123.003 80.2541 123.414C79.8482 123.827 79.3566 124.109 78.7795 124.259C78.22 124.398 77.6286 124.401 77.0055 124.268ZM77.4787 122.256C77.8409 122.333 78.1611 122.287 78.4392 122.119C78.7348 121.94 78.9242 121.654 79.0074 121.263C79.0905 120.872 79.0336 120.534 78.8365 120.25C78.6539 119.969 78.3815 119.79 78.0192 119.713C77.657 119.636 77.328 119.687 77.0324 119.866C76.7367 120.046 76.5474 120.331 76.4642 120.723C76.381 121.114 76.438 121.452 76.635 121.736C76.8352 122.005 77.1164 122.179 77.4787 122.256ZM88.9011 137.588L83.3616 120.576L100.86 124.295L88.9011 137.588ZM89.2661 135.871L99.1749 124.846L84.6766 121.764L89.2661 135.871ZM105.143 130.249C104.519 130.116 103.973 129.872 103.504 129.514C103.049 129.16 102.72 128.712 102.518 128.169C102.315 127.626 102.288 127.007 102.435 126.311C102.586 125.601 102.874 125.034 103.297 124.609C103.724 124.169 104.227 123.867 104.807 123.703C105.391 123.524 105.987 123.499 106.595 123.628C107.204 123.758 107.732 124.014 108.181 124.397C108.644 124.783 108.974 125.262 109.171 125.834C109.37 126.392 109.395 127.025 109.244 127.735C109.096 128.431 108.812 128.984 108.391 129.394C107.985 129.808 107.494 130.09 106.917 130.24C106.357 130.378 105.766 130.381 105.143 130.249ZM105.616 128.237C105.978 128.314 106.298 128.268 106.576 128.1C106.872 127.92 107.061 127.635 107.144 127.244C107.228 126.853 107.171 126.515 106.974 126.231C106.791 125.949 106.519 125.77 106.156 125.693C105.794 125.616 105.465 125.668 105.169 125.847C104.874 126.027 104.684 126.312 104.601 126.703C104.518 127.095 104.575 127.432 104.772 127.716C104.972 127.986 105.253 128.16 105.616 128.237ZM112.955 133.704L111.214 131.744L113.029 130.471L110.991 129.584L112.291 127.316L114.075 128.649L114.272 126.442L116.859 126.991L116.14 129.088L118.291 128.591L118.578 131.196L116.355 131.178L117.474 133.074L115.086 134.157L114.444 132.044L112.955 133.704ZM118.922 148.377L115.227 147.591C116.467 146.673 117.533 145.681 118.427 144.614C119.334 143.549 120.073 142.427 120.642 141.245C121.226 140.067 121.649 138.861 121.91 137.63C122.172 136.398 122.283 135.127 122.244 133.816C122.205 132.505 121.987 131.179 121.59 129.837C121.197 128.481 120.62 127.132 119.861 125.789L123.534 126.57C124.153 127.792 124.608 129.07 124.9 130.405C125.207 131.742 125.362 133.077 125.366 134.411C125.37 135.745 125.24 137.035 124.975 138.281C124.71 139.527 124.305 140.759 123.758 141.976C123.212 143.192 122.536 144.343 121.729 145.429C120.92 146.529 119.984 147.512 118.922 148.377Z" fill="#222125"/>
<path d="M187.655 42.4573C186.738 41.4522 185.948 40.349 185.285 39.1479C184.637 37.9605 184.128 36.7264 183.756 35.4455C183.384 34.1646 183.154 32.8887 183.065 31.6177C182.976 30.3468 183.027 29.0512 183.217 27.731C183.421 26.4098 183.761 25.1089 184.236 23.8282C184.725 22.5465 185.354 21.3441 186.122 20.2212L189.891 19.9576C188.937 21.1827 188.171 22.4392 187.593 23.7271C187.028 24.9992 186.628 26.2822 186.391 27.5759C186.17 28.8685 186.103 30.143 186.191 31.3992C186.279 32.6553 186.53 33.9076 186.944 35.1558C187.358 36.404 187.933 37.6187 188.669 38.7999C189.42 39.98 190.338 41.1113 191.423 42.1938L187.655 42.4573ZM192.604 36.609L191.03 36.719L190.627 30.9553L201.046 30.2267L201.156 31.8007L192.311 32.4192L192.604 36.609ZM203.582 37.111L202.448 20.884L218.675 19.7493L219.81 35.9763L203.582 37.111ZM220.637 39.5273L220.446 36.8006L230.954 36.0658L231.144 38.7925L220.637 39.5273ZM231.477 35.1604L230.342 18.9334L246.569 17.7987L247.704 34.0257L231.477 35.1604ZM251.767 37.9742L247.998 38.2377C248.937 37.0136 249.689 35.7656 250.254 34.4935C250.833 33.2203 251.233 31.9374 251.455 30.6447C251.691 29.351 251.765 28.0761 251.677 26.8199C251.59 25.5637 251.346 24.311 250.947 23.0617C250.548 21.8124 249.973 20.5977 249.222 19.4176C248.47 18.2227 247.544 17.0845 246.443 16.0031L250.19 15.7411C251.121 16.7452 251.911 17.8484 252.56 19.0505C253.223 20.2516 253.74 21.4926 254.112 22.7735C254.484 24.0544 254.714 25.3304 254.803 26.6013C254.892 27.8723 254.841 29.1679 254.652 30.488C254.462 31.8082 254.129 33.1012 253.653 34.3671C253.178 35.6478 252.55 36.8502 251.767 37.9742Z" fill="#222125"/>
<path d="M24.6548 68.2942C23.738 67.2891 22.948 66.1859 22.2848 64.9848C21.6375 63.7975 21.1279 62.5633 20.7562 61.2824C20.3844 60.0015 20.1541 58.7256 20.0653 57.4546C19.9764 56.1837 20.0269 54.8881 20.2167 53.5679C20.4214 52.2467 20.7611 50.9458 21.2359 49.6651C21.7254 48.3834 22.3542 47.1811 23.1222 46.0581L26.8908 45.7946C25.9368 47.0196 25.1708 48.2761 24.5925 49.5641C24.0281 50.8362 23.6277 52.1191 23.3914 53.4128C23.1699 54.7054 23.1031 55.9799 23.191 57.2361C23.2788 58.4923 23.5297 59.7445 23.9437 60.9927C24.3577 62.2409 24.9328 63.4556 25.6688 64.6368C26.4196 65.8169 27.3378 66.9482 28.4234 68.0307L24.6548 68.2942ZM49.2626 63.878L49.3354 64.9199L27.1674 66.4701L27.0945 65.4282L49.2626 63.878ZM77.2437 61.9214L77.3166 62.9633L55.1485 64.5134L55.0757 63.4715L77.2437 61.9214ZM80.3296 51.2579L78.1152 49.8534L79.5094 48.1298L77.306 47.8383L77.9304 45.2997L80.0128 46.0897L79.5933 43.9136L82.2313 43.7292L82.1188 45.9424L84.0488 44.8718L85.0426 47.2973L82.9011 47.8926L84.4996 49.407L82.5021 51.106L81.3032 49.2518L80.3296 51.2579ZM90.109 63.7172L86.3405 63.9807C87.2796 62.7567 88.0314 61.5086 88.5959 60.2365C89.1751 58.9634 89.5755 57.6805 89.797 56.3878C90.0333 55.0941 90.1075 53.8191 90.0196 52.563C89.9318 51.3068 89.6882 50.054 89.289 48.8048C88.8898 47.5555 88.3148 46.3408 87.5639 45.1607C86.8121 43.9658 85.886 42.8276 84.7857 41.7462L88.5321 41.4842C89.4636 42.4883 90.2536 43.5914 90.902 44.7936C91.5652 45.9947 92.0827 47.2357 92.4544 48.5166C92.8261 49.7975 93.0564 51.0734 93.1453 52.3444C93.2342 53.6154 93.1837 54.9109 92.9938 56.2311C92.804 57.5512 92.4712 58.8443 91.9953 60.1102C91.5206 61.3909 90.8918 62.5932 90.109 63.7172ZM101.308 58.6125L101.133 56.1075L108.486 45.3016L100.66 45.8488L100.454 42.9004L112.469 42.0603L112.643 44.5431L105.271 55.3949L113.229 54.8384L113.434 57.7646L101.308 58.6125ZM120.869 57.2446L120.705 54.8948L126.01 47.93L120.246 48.333L120.052 45.562L129.806 44.88L129.969 47.2076L124.644 54.1961L130.429 53.7915L130.623 56.5626L120.869 57.2446ZM137.983 56.0479L137.819 53.6981L143.123 46.7333L137.36 47.1363L137.166 44.3653L146.92 43.6833L147.083 46.0109L141.757 52.9994L147.543 52.5948L147.737 55.3659L137.983 56.0479Z" fill="#222125"/>
</svg>
