<svg width="1224" height="324" viewBox="0 0 1224 324" fill="none" xmlns="http://www.w3.org/2000/svg">
<rect width="188" height="72" transform="translate(0 252.114) rotate(-4)" fill="#177359"/>
<path d="M34.8356 303.016C33.5154 301.569 32.3778 299.981 31.4228 298.251C30.4906 296.541 29.7569 294.764 29.2216 292.92C28.6863 291.075 28.3546 289.238 28.2266 287.407C28.0987 285.577 28.1714 283.712 28.4448 281.811C28.7394 279.908 29.2286 278.035 29.9123 276.191C30.6173 274.345 31.5227 272.614 32.6286 270.996L38.0553 270.617C36.6817 272.381 35.5786 274.19 34.7459 276.045C33.9331 277.877 33.3565 279.724 33.0163 281.587C32.6974 283.449 32.6012 285.284 32.7277 287.093C32.8542 288.902 33.2155 290.705 33.8117 292.502C34.4078 294.3 35.2359 296.049 36.2957 297.75C37.3769 299.449 38.6991 301.078 40.2623 302.637L34.8356 303.016ZM41.8064 282.737C42.2885 282.596 42.8435 282.429 43.4715 282.235C44.098 282.021 44.6508 281.822 45.1299 281.638C45.65 281.431 46.3473 281.158 47.2218 280.818C48.0963 280.479 49.0559 280.134 50.1006 279.783C51.1666 279.431 52.2356 279.121 53.3075 278.853C54.4008 278.584 55.4369 278.415 56.4158 278.347C58.097 278.229 59.5878 278.446 60.888 278.997C62.208 279.525 63.2601 280.349 64.0443 281.471C64.8284 282.592 65.277 283.961 65.3901 285.579C65.4913 287.026 65.2643 288.368 64.7092 289.604C64.1754 290.839 63.3013 291.948 62.0869 292.931C60.8726 293.914 59.327 294.749 57.4504 295.436C55.5966 296.144 53.4086 296.66 50.8865 296.986L48.9201 293.178C50.7473 293.007 52.4174 292.73 53.9303 292.347C55.4645 291.961 56.7777 291.474 57.8699 290.884C58.9819 290.272 59.8182 289.54 60.3788 288.688C60.9607 287.834 61.2144 286.876 61.14 285.812C61.0835 285.003 60.8428 284.314 60.4181 283.745C60.0131 283.153 59.4583 282.711 58.7535 282.418C58.0486 282.125 57.228 282.011 56.2917 282.077C55.5468 282.129 54.7235 282.283 53.8218 282.538C52.9201 282.794 51.9902 283.105 51.0321 283.471C50.0953 283.836 49.1706 284.221 48.258 284.627C47.3454 285.033 46.496 285.424 45.7096 285.8C44.9232 286.176 44.2722 286.499 43.7566 286.771L41.8064 282.737ZM77.7357 274.964C75.863 275.095 74.364 274.761 73.2389 273.963C72.1124 273.143 71.4752 271.83 71.3274 270.023L75.0304 269.764C75.1097 270.592 75.3733 271.151 75.8213 271.441C76.2905 271.729 76.8656 271.849 77.5466 271.801C78.2702 271.75 78.823 271.551 79.205 271.204C79.6083 270.855 79.7916 270.265 79.7549 269.433L83.4578 269.174C83.5411 270.366 83.3557 271.384 82.9015 272.229C82.4671 273.05 81.8171 273.694 80.9516 274.161C80.0845 274.607 79.0126 274.874 77.7357 274.964ZM101.662 292.794L102.179 288.267C103.988 288.14 105.572 288.008 106.931 287.87C108.29 287.733 109.435 287.588 110.366 287.438C111.317 287.286 112.075 287.115 112.639 286.926C113.202 286.716 113.592 286.485 113.81 286.235C114.087 285.916 114.277 285.421 114.38 284.751C114.483 284.081 114.49 283.118 114.403 281.863C114.347 281.075 114.246 280.387 114.098 279.799C113.971 279.209 113.798 278.719 113.578 278.328C113.358 277.937 113.103 277.655 112.813 277.483C112.543 277.288 112.238 277.202 111.897 277.226C111.557 277.25 111.245 277.389 110.964 277.644C110.681 277.878 110.457 278.193 110.292 278.589C110.127 278.986 110.062 279.429 110.096 279.918C110.116 280.195 110.207 280.434 110.371 280.637C110.535 280.839 110.78 280.983 111.107 281.067C111.434 281.151 111.842 281.176 112.331 281.141C112.799 281.109 113.285 281.021 113.788 280.879C114.312 280.714 114.789 280.51 115.221 280.266L115.614 284.055C115.292 284.335 114.914 284.586 114.48 284.808C114.045 285.01 113.576 285.182 113.073 285.324C112.589 285.443 112.092 285.521 111.581 285.556C110.453 285.635 109.464 285.555 108.613 285.315C107.782 285.052 107.119 284.585 106.623 283.914C106.127 283.243 105.836 282.301 105.751 281.088C105.686 280.152 105.781 279.215 106.036 278.278C106.29 277.319 106.689 276.446 107.232 275.66C107.775 274.852 108.435 274.196 109.212 273.693C109.988 273.168 110.865 272.871 111.844 272.803C113.291 272.702 114.513 273.044 115.509 273.83C116.525 274.593 117.306 275.672 117.852 277.066C118.419 278.438 118.762 279.986 118.883 281.71C118.953 282.71 118.925 283.696 118.801 284.667C118.696 285.615 118.51 286.473 118.243 287.24C117.997 288.006 117.698 288.625 117.346 289.099C116.975 289.595 116.365 290.044 115.516 290.446C114.667 290.847 113.579 291.191 112.252 291.476C110.946 291.76 109.402 292.007 107.62 292.217C105.861 292.447 103.875 292.639 101.662 292.794ZM101.662 292.794C99.3636 292.955 97.4038 292.91 95.7823 292.66C94.1837 292.429 92.862 292.03 91.8171 291.462C90.792 290.87 90.0255 290.154 89.5176 289.313C89.0097 288.471 88.7193 287.529 88.6463 286.487C88.5987 285.806 88.6043 285.121 88.6631 284.432C88.7417 283.721 88.843 283.03 88.9671 282.358C89.1125 281.685 89.2411 281.077 89.3529 280.535L93.4079 281.181C93.3495 281.571 93.2828 281.992 93.2076 282.447C93.1325 282.901 93.0779 283.343 93.0438 283.773C93.0082 284.182 93.0023 284.557 93.0261 284.897C93.0812 285.685 93.407 286.368 94.0034 286.946C94.6197 287.502 95.5888 287.904 96.9108 288.154C98.2313 288.383 99.9875 288.42 102.179 288.267L103.059 291.67L101.662 292.794ZM128.409 271.42C126.537 271.551 125.038 271.218 123.913 270.419C122.786 269.6 122.149 268.287 122.001 266.479L125.704 266.22C125.783 267.049 126.047 267.608 126.495 267.897C126.964 268.185 127.539 268.305 128.22 268.258C128.944 268.207 129.497 268.008 129.879 267.66C130.282 267.311 130.465 266.721 130.429 265.89L134.132 265.631C134.215 266.823 134.029 267.841 133.575 268.685C133.141 269.507 132.491 270.151 131.625 270.618C130.758 271.063 129.686 271.331 128.409 271.42ZM148.43 295.33C148.819 294.469 149.118 293.699 149.328 293.022C149.56 292.364 149.656 291.758 149.618 291.205C149.583 290.715 149.472 290.349 149.284 290.106C149.097 289.883 148.796 289.701 148.38 289.559C147.965 289.439 147.389 289.308 146.652 289.167C145.546 288.945 144.572 288.628 143.731 288.216C142.888 287.783 142.176 287.234 141.595 286.569C141.013 285.904 140.553 285.124 140.212 284.228C139.891 283.31 139.69 282.265 139.608 281.095C139.493 279.456 139.608 278.036 139.952 276.836C140.294 275.615 140.821 274.594 141.534 273.774C142.268 272.953 143.154 272.324 144.193 271.888C145.23 271.431 146.387 271.157 147.664 271.068C148.622 271.001 149.522 271.034 150.366 271.168C151.23 271.3 152.102 271.538 152.982 271.883L151.866 275.65C151.056 275.386 150.337 275.19 149.708 275.063C149.098 274.913 148.464 274.862 147.804 274.908C146.932 274.969 146.234 275.231 145.71 275.696C145.187 276.16 144.824 276.784 144.622 277.568C144.42 278.352 144.356 279.266 144.429 280.308C144.479 281.032 144.577 281.667 144.722 282.212C144.889 282.757 145.125 283.232 145.431 283.638C145.759 284.043 146.199 284.376 146.752 284.637C147.305 284.898 148.014 285.094 148.879 285.226C150.198 285.433 151.222 285.714 151.953 286.07C152.703 286.402 153.238 286.856 153.556 287.433C153.894 287.987 154.093 288.689 154.152 289.541C154.221 290.519 154.128 291.478 153.872 292.415C153.64 293.372 153.326 294.239 152.931 295.015L148.43 295.33ZM159.352 294.309L153.925 294.689C155.278 292.926 156.36 291.129 157.173 289.297C158.007 287.464 158.584 285.617 158.903 283.755C159.243 281.892 159.35 280.056 159.223 278.247C159.097 276.438 158.746 274.634 158.171 272.836C157.596 271.037 156.768 269.287 155.687 267.588C154.604 265.867 153.271 264.228 151.686 262.671L157.081 262.294C158.423 263.74 159.56 265.328 160.494 267.059C161.449 268.789 162.194 270.576 162.729 272.421C163.265 274.265 163.596 276.102 163.724 277.933C163.852 279.763 163.78 281.628 163.506 283.529C163.233 285.43 162.753 287.292 162.068 289.115C161.385 290.959 160.479 292.691 159.352 294.309Z" fill="#F6F7FB"/>
<rect width="186" height="72" transform="translate(988.97 29) rotate(12)" fill="#ECC615"/>
<path d="M1008.43 87.532C1007.56 85.7768 1006.9 83.9362 1006.46 82.0104C1006.03 80.1099 1005.82 78.1993 1005.81 76.2787C1005.81 74.3582 1005.99 72.5006 1006.37 70.706C1006.76 68.9114 1007.34 67.1381 1008.13 65.3861C1008.93 63.6385 1009.92 61.9725 1011.09 60.3883C1012.27 58.8084 1013.62 57.3937 1015.13 56.144L1020.45 57.2751C1018.64 58.5922 1017.09 60.0274 1015.77 61.5807C1014.49 63.1175 1013.42 64.7344 1012.58 66.4314C1011.76 68.1328 1011.17 69.8704 1010.79 71.6441C1010.41 73.4178 1010.26 75.2507 1010.34 77.1429C1010.42 79.0351 1010.73 80.9447 1011.28 82.8718C1011.85 84.8034 1012.67 86.7338 1013.75 88.6631L1008.43 87.532ZM1044.4 64.8848C1044.01 65.3906 1043.63 65.932 1043.27 66.5093C1042.91 67.0865 1042.58 67.616 1042.28 68.0977C1041.59 69.194 1040.79 70.3665 1039.89 71.6151C1039.02 72.8681 1038.07 74.0848 1037.06 75.265C1036.07 76.4288 1035.03 77.4519 1033.95 78.3343C1032.84 79.254 1031.53 80.165 1030.03 81.0675C1028.56 81.9535 1026.97 82.7398 1025.28 83.4265C1023.61 84.0968 1021.9 84.5846 1020.16 84.89L1017.37 80.4693C1019.12 80.2519 1020.81 79.881 1022.45 79.3568C1024.09 78.8326 1025.63 78.1797 1027.08 77.398C1028.54 76.6164 1029.84 75.7701 1030.99 74.8593C1032.25 73.8619 1033.43 72.6837 1034.53 71.3245C1035.65 69.9488 1036.65 68.5049 1037.54 66.9926C1038.45 65.4847 1039.2 64.0188 1039.78 62.5949L1044.4 64.8848ZM1052.74 77.6506L1050.24 74.8275L1052.85 72.995L1049.92 71.717L1051.79 68.4508L1054.36 70.3709L1054.64 67.1922L1058.37 67.984L1057.33 71.0029L1060.43 70.2871L1060.84 74.0389L1057.64 74.0129L1059.25 76.7436L1055.81 78.3026L1054.89 75.2601L1052.74 77.6506ZM1068.1 78.3307C1067.21 78.14 1066.42 77.7874 1065.74 77.273C1065.09 76.763 1064.62 76.1172 1064.32 75.3354C1064.03 74.5536 1063.99 73.662 1064.21 72.6603C1064.42 71.6378 1064.84 70.8206 1065.45 70.2087C1066.06 69.576 1066.79 69.1412 1067.62 68.9044C1068.46 68.6467 1069.32 68.611 1070.2 68.7973C1071.07 68.9836 1071.83 69.3526 1072.48 69.9043C1073.15 70.4605 1073.62 71.1503 1073.9 71.9738C1074.19 72.7764 1074.23 73.689 1074.01 74.7115C1073.8 75.7131 1073.39 76.5094 1072.78 77.1005C1072.2 77.6959 1071.49 78.1016 1070.66 78.3176C1069.85 78.5171 1069 78.5215 1068.1 78.3307ZM1068.78 75.4331C1069.31 75.544 1069.77 75.4784 1070.17 75.2363C1070.59 74.9779 1070.87 74.5669 1070.99 74.0035C1071.11 73.4401 1071.02 72.9538 1070.74 72.5445C1070.48 72.1396 1070.08 71.8818 1069.56 71.7709C1069.04 71.66 1068.57 71.7338 1068.14 71.9923C1067.72 72.2507 1067.44 72.6617 1067.32 73.2251C1067.2 73.7885 1067.29 74.2749 1067.57 74.6841C1067.86 75.0725 1068.26 75.3222 1068.78 75.4331ZM1085.23 97.5113L1077.26 73.0135L1102.45 78.3693L1085.23 97.5113ZM1085.76 95.0386L1100.03 79.1623L1079.15 74.7246L1085.76 95.0386ZM1108.62 86.943C1107.72 86.7522 1106.94 86.3997 1106.26 85.8852C1105.61 85.3753 1105.13 84.7294 1104.84 83.9476C1104.55 83.1659 1104.51 82.2742 1104.72 81.2726C1104.94 80.2501 1105.35 79.4329 1105.96 78.821C1106.58 78.1882 1107.3 77.7534 1108.14 77.5166C1108.98 77.2589 1109.84 77.2233 1110.71 77.4095C1111.59 77.5958 1112.35 77.9648 1113 78.5166C1113.66 79.0727 1114.14 79.7625 1114.42 80.586C1114.71 81.3886 1114.74 82.3012 1114.53 83.3237C1114.31 84.3253 1113.9 85.1217 1113.3 85.7127C1112.71 86.3082 1112.01 86.7139 1111.18 86.9298C1110.37 87.1293 1109.52 87.1337 1108.62 86.943ZM1109.3 84.0453C1109.82 84.1562 1110.28 84.0906 1110.69 83.8486C1111.11 83.5901 1111.38 83.1792 1111.5 82.6157C1111.62 82.0523 1111.54 81.566 1111.26 81.1567C1110.99 80.7519 1110.6 80.494 1110.08 80.3831C1109.56 80.2722 1109.09 80.346 1108.66 80.6045C1108.23 80.863 1107.96 81.2739 1107.84 81.8373C1107.72 82.4007 1107.8 82.8871 1108.09 83.2964C1108.38 83.6848 1108.78 83.9344 1109.3 84.0453ZM1119.87 91.9188L1117.36 89.0957L1119.98 87.2632L1117.04 85.9852L1118.92 82.719L1121.48 84.6391L1121.77 81.4604L1125.49 82.2522L1124.46 85.2711L1127.55 84.5553L1127.97 88.3071L1124.77 88.2811L1126.38 91.0118L1122.94 92.5708L1122.02 89.5283L1119.87 91.9188ZM1128.46 113.047L1123.14 111.916C1124.93 110.594 1126.46 109.165 1127.75 107.628C1129.06 106.096 1130.12 104.479 1130.94 102.777C1131.78 101.08 1132.39 99.3451 1132.77 97.5714C1133.14 95.7977 1133.3 93.967 1133.25 92.0792C1133.19 90.1915 1132.88 88.2819 1132.31 86.3503C1131.74 84.3979 1130.91 82.4548 1129.81 80.5211L1135.1 81.6455C1136 83.4052 1136.65 85.2457 1137.07 87.1671C1137.51 89.0929 1137.74 91.0162 1137.74 92.9367C1137.75 94.8573 1137.56 96.7149 1137.18 98.5095C1136.8 100.304 1136.21 102.077 1135.43 103.829C1134.64 105.581 1133.67 107.239 1132.51 108.803C1131.34 110.387 1129.99 111.802 1128.46 113.047Z" fill="#222125"/>
<path d="M1098.84 235.715C1097.52 234.267 1096.38 232.679 1095.42 230.949C1094.49 229.239 1093.76 227.462 1093.22 225.618C1092.69 223.773 1092.35 221.936 1092.23 220.106C1092.1 218.276 1092.17 216.41 1092.44 214.509C1092.74 212.606 1093.23 210.733 1093.91 208.889C1094.62 207.043 1095.52 205.312 1096.63 203.695L1102.06 203.315C1100.68 205.079 1099.58 206.889 1098.75 208.743C1097.93 210.575 1097.36 212.422 1097.02 214.285C1096.7 216.147 1096.6 217.982 1096.73 219.791C1096.85 221.6 1097.22 223.403 1097.81 225.201C1098.41 226.998 1099.24 228.747 1100.3 230.448C1101.38 232.147 1102.7 233.776 1104.26 235.335L1098.84 235.715ZM1105.96 227.293L1103.7 227.452L1103.12 219.152L1118.12 218.103L1118.28 220.369L1105.54 221.26L1105.96 227.293ZM1121.77 228.016L1120.14 204.649L1143.5 203.015L1145.14 226.382L1121.77 228.016ZM1146.33 231.495L1146.05 227.569L1161.19 226.511L1161.46 230.437L1146.33 231.495ZM1161.94 225.207L1160.31 201.84L1183.67 200.206L1185.31 223.573L1161.94 225.207ZM1191.16 229.259L1185.73 229.638C1187.08 227.876 1188.17 226.079 1188.98 224.247C1189.81 222.413 1190.39 220.566 1190.71 218.705C1191.05 216.842 1191.15 215.006 1191.03 213.197C1190.9 211.388 1190.55 209.584 1189.98 207.785C1189.4 205.986 1188.57 204.237 1187.49 202.538C1186.41 200.817 1185.08 199.178 1183.49 197.621L1188.89 197.243C1190.23 198.689 1191.37 200.278 1192.3 202.009C1193.25 203.739 1194 205.526 1194.53 207.37C1195.07 209.215 1195.4 211.052 1195.53 212.882C1195.66 214.712 1195.58 216.578 1195.31 218.479C1195.04 220.38 1194.56 222.242 1193.87 224.065C1193.19 225.909 1192.28 227.64 1191.16 229.259Z" fill="#222125"/>
<path d="M34.8356 68.2948C33.5154 66.8474 32.3778 65.2589 31.4228 63.5293C30.4906 61.8195 29.7569 60.0423 29.2216 58.1978C28.6863 56.3533 28.3546 54.516 28.2266 52.6858C28.0987 50.8556 28.1714 48.99 28.4448 47.0889C28.7394 45.1864 29.2286 43.3131 29.9123 41.4689C30.6173 39.6232 31.5227 37.8918 32.6286 36.2748L38.0553 35.8953C36.6817 37.6594 35.5786 39.4688 34.7459 41.3234C33.9331 43.1552 33.3565 45.0026 33.0163 46.8655C32.6974 48.727 32.6012 50.5621 32.7277 52.3711C32.8542 54.18 33.2155 55.9832 33.8117 57.7806C34.4078 59.5781 35.2359 61.3272 36.2957 63.0281C37.3769 64.7275 38.6991 66.3566 40.2623 67.9153L34.8356 68.2948ZM70.2708 61.9355L70.3757 63.4358L38.4537 65.668L38.3487 64.1677L70.2708 61.9355ZM110.564 59.1179L110.669 60.6183L78.7465 62.8505L78.6416 61.3501L110.564 59.1179ZM115.007 43.7625L111.818 41.7401L113.826 39.258L110.653 38.8383L111.552 35.1826L114.551 36.3202L113.947 33.1867L117.746 32.9211L117.584 36.1082L120.363 34.5666L121.794 38.0592L118.71 38.9164L121.012 41.0972L118.136 43.5438L116.409 40.8737L115.007 43.7625ZM129.09 61.7039L123.663 62.0834C125.015 60.3208 126.098 58.5235 126.911 56.6917C127.745 54.8584 128.321 53.011 128.64 51.1495C128.981 49.2866 129.087 47.4507 128.961 45.6418C128.834 43.8329 128.484 42.0289 127.909 40.23C127.334 38.431 126.506 36.6819 125.425 34.9825C124.342 33.2618 123.009 31.6228 121.424 30.0656L126.819 29.6883C128.16 31.1343 129.298 32.7228 130.232 34.4539C131.187 36.1835 131.932 37.9705 132.467 39.815C133.002 41.6595 133.334 43.4968 133.462 45.327C133.59 47.1572 133.517 49.0228 133.244 50.9239C132.97 52.8249 132.491 54.6869 131.806 56.5098C131.122 58.354 130.217 60.0853 129.09 61.7039ZM145.216 54.3531L144.964 50.7459L155.552 35.1854L144.284 35.9734L143.987 31.7277L161.288 30.5179L161.538 34.0931L150.923 49.7197L162.383 48.9184L162.677 53.1321L145.216 54.3531ZM173.384 52.3834L173.148 48.9996L180.787 38.9703L172.487 39.5507L172.208 35.5604L186.254 34.5783L186.488 37.9301L178.819 47.9935L187.151 47.4109L187.43 51.4012L173.384 52.3834ZM198.028 50.6601L197.791 47.2764L205.43 37.2471L197.131 37.8275L196.852 33.8372L210.897 32.855L211.132 36.2068L203.463 46.2703L211.795 45.6877L212.074 49.6779L198.028 50.6601Z" fill="#222125"/>
</svg>
