<svg width="24" height="24" viewBox="0 0 24 24" fill="#000000" xmlns="http://www.w3.org/2000/svg">
<path d="M5.75 17.275C4.125 15.7 3.125 13.475 3.125 11C3.125 6.1 7.1 2.125 12 2.125C16.9 2.125 20.875 6.1 20.875 11C20.875 13.475 19.875 15.7 18.275 17.25L14.825 20.75C13.225 22.35 10.825 22.35 9.25 20.75L5.75 17.275ZM17.05 16.025C18.375 14.725 19.125 13.025 19.125 11C19.125 6.95 16.05 3.875 12 3.875C7.95 3.875 4.875 6.95 4.875 11C4.875 13.025 5.625 14.725 6.975 16.025L10.475 19.525C11.475 20.525 12.575 20.525 13.6 19.525L17.05 16.025ZM13.875 11C13.875 12.025 13.025 12.875 12 12.875C10.975 12.875 10.125 12.025 10.125 11C10.125 9.975 10.975 9.125 12 9.125C13.025 9.125 13.875 9.975 13.875 11ZM13.875 11C13.875 12.025 13.025 12.875 12 12.875C10.975 12.875 10.125 12.025 10.125 11C10.125 9.975 10.975 9.125 12 9.125C13.025 9.125 13.875 9.975 13.875 11Z" fill="#222125"/>
</svg>
