<svg width="242" height="48" viewBox="0 0 242 48" fill="none" xmlns="http://www.w3.org/2000/svg">
<g clip-path="url(#clip0_2579_50)">
<path d="M69.4852 13.2288H75.4082V30.792H81.5756V13.2288H87.4986V30.792H93.6612V13.2288H99.5842V34.4784H69.4852V13.2288ZM108.325 27.552V34.4736H102.55V18.6864H108.301V25.2768H108.905L114.531 18.6864H120.564L113.711 26.256V25.7232L120.938 34.4736H114.564L108.929 27.552H108.325ZM120.425 26.5632C120.281 21.7392 124.067 18.3792 129.865 18.3792C135.247 18.3792 139.45 21.6288 139.296 26.5632C139.296 31.416 135.463 34.8 129.87 34.8C124.278 34.8 120.425 31.4016 120.425 26.5632ZM133.814 26.5632C133.881 24.2592 132.592 21.7632 129.851 21.7632C127.11 21.7632 125.821 24.2496 125.883 26.5632C125.821 28.8576 127.072 31.5072 129.875 31.4112C132.597 31.4928 133.876 28.872 133.814 26.5776V26.5632ZM159.725 29.8944C159.615 26.3376 163.87 25.2576 166.836 25.0944L173.929 24.7152V27.3936L168.116 27.7728C166.951 27.7728 165.447 28.3152 165.447 29.6928C165.447 31.0704 166.846 31.6128 168.034 31.5456C170.224 31.5456 171.35 29.0448 171.35 27.552V23.9136C171.465 21.0336 166.592 20.9712 165.897 23.544H160.535C160.535 19.7472 165.236 18.288 168.518 18.36C171.873 18.288 177.12 19.8672 177.053 23.64V34.4736H171.302V32.16H170.823C170.469 32.688 169.999 34.752 165.859 34.752C162.931 34.7856 159.672 33.0768 159.725 29.952V29.8944ZM191.832 16.296H189.239V13.2H197.726V34.464H191.832V16.296ZM223.79 16.32H221.202V13.2H229.684V34.464H223.79V16.32ZM236.106 16.32H233.518V13.2H242V34.464H236.111L236.106 16.32ZM202.705 22.272H217.287V26.0256H202.705V22.272ZM147.596 30.7968C146.302 34.4016 142.607 35.4528 139.627 34.4016V30.7968C143.015 30.7968 143.12 28.5312 143.413 24.36C143.705 20.1888 143.724 18.6672 143.724 18.6672H157.952V34.4496H152.201V21.9264H148.789C148.789 21.9264 148.866 27.192 147.596 30.7968Z" fill="#222125"/>
<path fill-rule="evenodd" clip-rule="evenodd" d="M1.53826 7.7088C0 10.728 0 14.6832 0 22.5888V25.4112C0 28.176 0 30.4608 0.0670891 32.3856H15.5886V47.9328C17.5055 48 19.7913 48 22.5515 48H25.3693C33.2618 48 37.2105 48 40.2247 46.4592C42.8753 45.1051 45.0307 42.9462 46.3825 40.2912C47.9208 37.272 47.9208 33.3168 47.9208 25.4112V22.5888C47.9208 19.824 47.9208 17.5392 47.8537 15.6144H40.1289V7.8048H32.3322V0.0672C30.4105 0 28.1295 0 25.3693 0H22.5515C14.659 0 10.7103 0 7.69608 1.5408C5.04351 2.89222 2.88744 5.05184 1.53826 7.7088ZM22.3838 9.9648H37.9724V25.5792H30.1901V17.76H22.3838V9.9648ZM25.3693 22.5888H17.5773V30.3936H25.3693V22.5888ZM7.79192 46.512V40.1952H1.48554L1.53826 40.2912C2.8888 42.9472 5.04449 45.1064 7.69608 46.4592L7.79192 46.512Z" fill="#EF3100"/>
</g>
<defs>
<clipPath id="clip0_2579_50">
<rect width="242" height="48" fill="white"/>
</clipPath>
</defs>
</svg>
