<svg width="0" height="0" class="hidden">
  <symbol id="telegram" viewBox="0 0 24 24" fill="none" xmlns="http://www.w3.org/2000/svg">
    <path d="M22 2L11 13" stroke="currentColor" stroke-width="2" stroke-linecap="round" stroke-linejoin="round"/>
    <path d="M22 2L15 22L11 13L2 9L22 2Z" stroke="currentColor" stroke-width="2" stroke-linecap="round" stroke-linejoin="round"/>
  </symbol>
  <symbol id="whatsapp" viewBox="0 0 24 24" fill="none" xmlns="http://www.w3.org/2000/svg">
    <path d="M17.6 6.31999C16.8 5.49999 15.8 4.84999 14.7 4.38999C13.6 3.92999 12.3 3.69999 11 3.69999C9.7 3.69999 8.5 3.92999 7.3 4.38999C6.2 4.84999 5.2 5.49999 4.3 6.31999C3.5 7.13999 2.9 8.09999 2.4 9.19999C1.9 10.3 1.7 11.5 1.7 12.8C1.7 14.9 2.3 16.8 3.4 18.5L2 23L6.6 21.6C8.3 22.6 9.6 23 11 23C12.3 23 13.5 22.8 14.7 22.3C15.8 21.8 16.8 21.2 17.6 20.4C18.4 19.6 19.1 18.6 19.5 17.5C20 16.4 20.2 15.2 20.2 13.9C20.2 12.6 20 11.4 19.5 10.3C19.1 9.09999 18.4 8.13999 17.6 6.31999ZM11 21.3C9.7 21.3 8.6 21 7.5 20.3L6.9 20L4.2 20.8L5 18.2L4.6 17.5C3.9 16.4 3.5 15.3 3.5 13.9C3.5 12.8 3.7 11.8 4.1 10.9C4.5 10 5 9.19999 5.7 8.49999C6.4 7.79999 7.2 7.29999 8.1 6.89999C9 6.49999 10 6.29999 11 6.29999C12.1 6.29999 13.1 6.49999 14 6.89999C14.9 7.29999 15.7 7.79999 16.4 8.49999C17.1 9.19999 17.6 10 18 10.9C18.4 11.8 18.6 12.8 18.6 13.9C18.6 15 18.4 16 18 16.9C17.6 17.8 17.1 18.6 16.4 19.3C15.7 20 14.9 20.5 14 20.9C13 21.2 12 21.3 11 21.3ZM14.3 15.6C14.1 15.5 13.9 15.5 13.8 15.4C13.7 15.4 13.5 15.3 13.1 15.1C12.8 14.9 12.6 14.8 12.4 14.7C12.3 14.6 12.2 14.6 12 14.7C11.8 14.8 11.5 15 11.3 15.2C11.1 15.4 11 15.5 10.9 15.5C10.8 15.5 10.6 15.5 10.5 15.4C10.4 15.3 10.2 15.3 10.1 15.2C10 15.1 9.90001 15.1 9.80001 15C9.40001 14.8 9.10001 14.5 8.80001 14.2C8.50001 13.9 8.30001 13.7 8.10001 13.4C8.00001 13.3 7.90001 13.1 7.80001 13C7.70001 12.9 7.70001 12.8 7.80001 12.7C7.90001 12.6 8.00001 12.5 8.10001 12.4C8.20001 12.3 8.20001 12.2 8.30001 12.1C8.40001 12 8.40001 11.9 8.40001 11.8C8.40001 11.7 8.40001 11.6 8.30001 11.5C8.20001 11.4 8.10001 11.2 8.00001 11C7.90001 10.8 7.80001 10.7 7.80001 10.6C7.80001 10.5 7.70001 10.4 7.70001 10.2C7.70001 10.1 7.70001 10 7.80001 9.89999C7.90001 9.79999 7.90001 9.69999 8.00001 9.69999C8.10001 9.69999 8.10001 9.59999 8.20001 9.59999H8.30001C8.40001 9.59999 8.60001 9.59999 8.70001 9.59999C8.80001 9.59999 8.90001 9.69999 9.00001 9.69999C9.10001 9.69999 9.10001 9.79999 9.20001 9.79999C9.30001 9.79999 9.30001 9.89999 9.40001 9.99999C9.60001 10.2 9.80001 10.5 10 10.7C10.2 10.9 10.3 11.1 10.4 11.2C10.5 11.3 10.5 11.3 10.6 11.4C10.7 11.5 10.8 11.5 10.9 11.4C11 11.3 11.1 11.3 11.1 11.2C11.1 11.1 11.2 11 11.2 10.8C11.2 10.6 11.2 10.5 11.2 10.3C11.2 10.1 11.2 10 11.2 9.89999C11.2 9.79999 11.1 9.59999 11.1 9.49999C11.1 9.49999 11.4 9.49999 11.7 9.59999C12 9.69999 12.2 9.79999 12.4 9.89999C12.8 10.1 13.1 10.3 13.4 10.5C13.7 10.7 13.9 10.9 14.1 11.1C14.3 11.3 14.5 11.5 14.6 11.7C14.7 11.9 14.9 12.1 14.9 12.2C15 12.4 15 12.6 15.1 12.7C15.1 12.9 15.1 13 15.1 13.2C15.1 13.4 15.1 13.5 15 13.7C15 13.9 14.9 14 14.9 14.2C14.9 14.3 14.8 14.5 14.7 14.7C14.6 14.9 14.5 15 14.4 15.1C14.1 15.4 14 15.5 14.3 15.6Z" fill="currentColor"/>
  </symbol>
  <symbol id="vk" viewBox="0 0 24 24" fill="none" xmlns="http://www.w3.org/2000/svg">
    <path d="M15.684 14.348C15.2093 13.6846 15.0266 13.5133 15.684 12.428C16.744 10.7133 17.168 9.65333 17.004 9.23866C16.852 8.84533 15.86 8.92666 15.86 8.92666L13.396 8.93866C13.396 8.93866 13.228 8.916 13.108 8.98533C12.992 9.05333 12.92 9.21066 12.92 9.21066C12.92 9.21066 12.508 10.6493 11.948 11.8853C10.772 14.4773 10.312 14.5706 10.148 14.468C9.764 14.228 9.864 13.1746 9.864 12.4146C9.864 9.90933 10.112 8.82533 9.256 8.63866C8.98 8.57066 8.776 8.52666 8.092 8.52C7.208 8.50933 6.46 8.52 6.02 8.70533C5.732 8.82533 5.504 9.09066 5.62 9.106C5.764 9.12666 6.08 9.19333 6.272 9.43066C6.52 9.738 6.512 10.738 6.512 10.738C6.512 10.738 6.652 14.2426 6.128 14.474C5.768 14.632 5.276 14.2346 4.232 11.8653C3.692 10.654 3.292 9.30533 3.292 9.30533C3.292 9.30533 3.232 9.15466 3.116 9.07066C2.976 8.96933 2.78 8.93866 2.78 8.93866L0.428 8.95066C0.428 8.95066 0.0120012 8.96133 -0.104 9.098C-0.208 9.21866 -0.0959995 9.46933 -0.0959995 9.46933C-0.0959995 9.46933 2.536 14.7386 5.5 17.404C8.216 19.8706 11.284 19.7506 11.284 19.7506H12.536C12.536 19.7506 12.896 19.7213 13.076 19.528C13.244 19.352 13.24 19.1013 13.24 19.1013C13.24 19.1013 13.22 17.5973 13.952 17.368C14.672 17.144 15.592 18.8346 16.564 19.4293C17.308 19.884 17.872 19.7973 17.872 19.7973L20.06 19.7506C20.06 19.7506 21.368 19.684 20.724 18.632C20.68 18.5573 20.356 17.8653 18.804 16.428C17.18 14.9293 17.352 15.1213 19.284 12.6093C20.468 11.068 20.952 10.128 20.832 9.72933C20.72 9.35733 19.832 9.44 19.832 9.44L17.372 9.45866C17.372 9.45866 17.156 9.438 16.996 9.53866C16.84 9.63733 16.74 9.86533 16.74 9.86533C16.74 9.86533 16.272 11.0306 15.684 12.0386C14.448 14.1573 13.912 14.2506 13.704 14.1146C13.22 13.812 13.316 12.8786 13.316 12.2066C13.316 10.1546 13.54 9.33466 12.604 9.13466C12.308 9.06533 12.092 9.02133 11.288 9.014C10.268 9.00533 9.408 9.014 8.924 9.20933C8.6 9.33866 8.344 9.62533 8.5 9.64133C8.692 9.66133 9.092 9.72933 9.304 10.0267C9.572 10.4093 9.56 11.296 9.56 11.296C9.56 11.296 9.712 13.8293 9.172 14.1293C8.8 14.3346 8.3 13.944 7.208 12.0173C6.644 11.0253 6.188 9.93066 6.188 9.93066C6.188 9.93066 6.1 9.70933 5.948 9.59733C5.764 9.46133 5.512 9.41866 5.512 9.41866L3.164 9.43066C3.164 9.43066 2.752 9.44133 2.6 9.614C2.464 9.76933 2.588 10.0893 2.588 10.0893C2.588 10.0893 4.688 15.0586 7.064 17.5733C9.26 19.9013 11.796 19.7506 11.796 19.7506H12.536" fill="currentColor"/>
  </symbol>
  <symbol id="location" viewBox="0 0 20 20" fill="none" xmlns="http://www.w3.org/2000/svg">
    <path d="M10 10.8333C11.3807 10.8333 12.5 9.71406 12.5 8.33332C12.5 6.95259 11.3807 5.83332 10 5.83332C8.61929 5.83332 7.5 6.95259 7.5 8.33332C7.5 9.71406 8.61929 10.8333 10 10.8333Z" stroke="currentColor" stroke-width="1.5" stroke-linecap="round" stroke-linejoin="round"/>
    <path d="M10 17.5C13.3333 14.1667 16.6667 11.3631 16.6667 8.33333C16.6667 5.30355 13.6833 2.5 10 2.5C6.31667 2.5 3.33334 5.30355 3.33334 8.33333C3.33334 11.3631 6.66667 14.1667 10 17.5Z" stroke="currentColor" stroke-width="1.5" stroke-linecap="round" stroke-linejoin="round"/>
  </symbol>
</svg> 