<svg width="227" height="126" viewBox="0 0 227 126" fill="none" xmlns="http://www.w3.org/2000/svg">
<rect width="215" height="96" transform="translate(0 30.4282) rotate(-8)" fill="#EF3100"/>
<path d="M47.0803 102.441C44.599 100.075 42.4191 97.4408 40.5408 94.5379C38.7047 91.6669 37.2069 88.654 36.0472 85.4994C34.8875 82.3447 34.0843 79.1777 33.6374 75.9983C33.1906 72.8189 33.0898 69.5531 33.335 66.201C33.6172 62.8438 34.2424 59.5137 35.2109 56.2107C36.2162 52.9026 37.5855 49.7696 39.3187 46.8116L48.7461 45.4866C46.5635 48.734 44.8585 52.0273 43.6313 55.3666C42.4359 58.6637 41.6549 61.9592 41.2884 65.2529C40.9589 68.5414 41.015 71.7569 41.4566 74.8994C41.8982 78.0418 42.7492 81.1456 44.0093 84.2107C45.2695 87.2758 46.9286 90.2283 48.9865 93.0682C51.0814 95.9029 53.5885 98.5855 56.5077 101.116L47.0803 102.441ZM58.5926 67.4581L52.7788 64.3166L55.9808 59.7384L50.3904 59.3931L51.5139 52.9016L56.8876 54.5215L55.4506 49.125L62.0497 48.1975L62.1558 53.7811L66.8194 50.7505L69.7442 56.6731L64.4654 58.546L68.7499 62.0721L64.0272 66.6943L60.6873 62.2438L58.5926 67.4581ZM76.705 61.1802L84.3027 46.0314L89.5155 45.2988L101.216 57.7354L93.6743 58.7954L87.9085 51.9714L84.136 60.1359L76.705 61.1802ZM115.776 82.5506C114.445 82.7376 113.26 82.4894 112.222 81.806C111.183 81.1225 110.558 80.0229 110.344 78.5071C110.126 76.9544 110.417 75.6694 111.216 74.6523C112.053 73.6299 113.118 73.0278 114.412 72.8459C115.706 72.6641 116.878 72.9519 117.927 73.7092C118.97 74.4297 119.601 75.5662 119.82 77.119C120.038 78.6717 119.742 79.9197 118.932 80.8629C118.122 81.8062 117.07 82.3687 115.776 82.5506ZM122.902 54.6877L130.499 39.5389L135.712 38.8063L147.413 51.2429L139.871 52.3028L134.105 45.4789L130.333 53.6434L122.902 54.6877ZM161.059 53.0574L155.245 49.916L158.447 45.3378L152.856 44.9925L153.98 38.5009L159.354 40.1208L157.917 34.7243L164.516 33.7968L164.622 39.3804L169.286 36.3499L172.21 42.2725L166.932 44.1453L171.216 47.6714L166.493 52.2936L163.153 47.8431L161.059 53.0574ZM187.278 82.7372L177.851 84.0621C179.997 80.8199 181.667 77.5503 182.863 74.2532C184.095 70.9508 184.876 67.6554 185.206 64.3669C185.572 61.0732 185.535 57.8551 185.093 54.7126C184.651 51.5702 183.819 48.4638 182.596 45.3935C181.372 42.3232 179.713 39.3707 177.618 36.536C175.518 33.6643 172.99 30.9659 170.034 28.4407L179.406 27.1236C181.924 29.4841 184.104 32.1183 185.945 35.0264C187.824 37.9292 189.343 40.958 190.502 44.1126C191.662 47.2673 192.465 50.4343 192.912 53.6137C193.359 56.7931 193.46 60.0589 193.214 63.411C192.969 66.763 192.36 70.0721 191.386 73.338C190.418 76.6409 189.049 79.774 187.278 82.7372Z" fill="#F6F7FB"/>
</svg>
