<svg width="48" height="48" viewBox="0 0 48 48" fill="none" xmlns="http://www.w3.org/2000/svg">
<g clip-path="url(#clip0_2579_59)">
<mask id="mask0_2579_59" style="mask-type:luminance" maskUnits="userSpaceOnUse" x="12" y="12" width="24" height="24">
<path d="M14.067 23.8407C14.1103 23.82 14.1536 23.8003 14.1958 23.7817C14.9298 23.4565 15.6736 23.152 16.4163 22.8475C16.4563 22.8475 16.5234 22.803 16.5613 22.7885C16.6187 22.7647 16.6761 22.7419 16.7335 22.7181C16.8439 22.6725 16.9543 22.628 17.0637 22.5824C17.2845 22.4923 17.5043 22.4022 17.7252 22.3121L19.047 21.7704C19.9283 21.41 20.8107 21.0486 21.6919 20.6882C22.5732 20.3278 23.4555 19.9663 24.3368 19.6059C25.218 19.2455 26.1004 18.884 26.9816 18.5236C27.8629 18.1632 28.7452 17.8018 29.6265 17.4414C29.8224 17.3606 30.0346 17.2404 30.2447 17.2052C30.4211 17.1752 30.5933 17.1172 30.7708 17.0851C31.1075 17.024 31.4788 16.9991 31.8015 17.1327C31.913 17.1793 32.0158 17.2446 32.1014 17.3264C32.5106 17.7137 32.4532 18.3496 32.3666 18.8944C31.7636 22.6912 31.1606 26.4889 30.5564 30.2857C30.4742 30.8066 30.3616 31.3783 29.9318 31.7077C29.568 31.9863 29.0505 32.0173 28.6012 31.8993C28.1519 31.7802 27.7557 31.5306 27.367 31.2851C25.755 30.2639 24.1419 29.2428 22.5299 28.2216C22.1466 27.9793 21.7201 27.6624 21.7244 27.2222C21.7266 26.9571 21.8922 26.7209 22.0611 26.5107C23.462 24.7625 25.4833 23.5611 26.987 21.8937C27.1992 21.6586 27.366 21.234 27.0747 21.0983C26.9015 21.0175 26.7023 21.1273 26.5442 21.2319C24.5565 22.5524 22.5699 23.8739 20.5822 25.1944C19.9337 25.6252 19.2538 26.0685 18.4722 26.1741C17.7728 26.2694 17.0691 26.083 16.3925 25.8924C15.8252 25.7329 15.2589 25.5693 14.6949 25.4005C14.395 25.3114 14.0854 25.2151 13.8537 25.0131C13.622 24.8112 13.4889 24.4715 13.6285 24.2022C13.7162 24.0334 13.8862 23.9267 14.0648 23.8397L14.067 23.8407Z" fill="white"/>
</mask>
<g mask="url(#mask0_2579_59)">
<rect width="48" height="48" fill="white" />
</g>
</g>
<defs>
<clipPath id="clip0_2579_59">
<rect width="48" height="48" fill="white"/>
</clipPath>
</defs>
</svg>
