<svg width="48" height="48" viewBox="0 0 48 48" fill="none" xmlns="http://www.w3.org/2000/svg">
<g clip-path="url(#clip0_2579_71)">
<mask id="mask0_2579_71" style="mask-type:luminance" maskUnits="userSpaceOnUse" x="12" y="12" width="24" height="24">
<path fill-rule="evenodd" clip-rule="evenodd" d="M33.8016 18.8327C33.9541 18.363 33.8016 18.0214 33.1262 18.0214H30.8822C30.3157 18.0214 30.0543 18.3203 29.9018 18.6406C29.9018 18.6406 28.7471 21.3737 27.1348 23.1459C26.612 23.6584 26.3723 23.8292 26.0891 23.8292C25.9366 23.8292 25.7405 23.6584 25.7405 23.1886V18.8114C25.7405 18.2562 25.5662 18 25.0869 18H21.5574C21.2089 18 20.991 18.2562 20.991 18.5125C20.991 19.0463 21.7971 19.1744 21.8842 20.669V23.9146C21.8842 24.6192 21.7535 24.7473 21.4703 24.7473C20.7078 24.7473 18.8559 21.9929 17.7448 18.8541C17.5269 18.2349 17.309 18 16.7426 18H14.4768C13.8232 18 13.7142 18.2989 13.7142 18.6192C13.7142 19.1957 14.4768 22.0996 17.2655 25.9431C19.1173 28.5694 21.7535 29.9786 24.1283 29.9786C25.5662 29.9786 25.7405 29.6584 25.7405 29.1246V27.1388C25.7405 26.4982 25.8712 26.3915 26.3287 26.3915C26.6555 26.3915 27.2438 26.5623 28.5728 27.8221C30.0978 29.3167 30.3593 30 31.209 30H33.453C34.1066 30 34.4116 29.6797 34.2373 29.0605C34.0412 28.4413 33.3005 27.5445 32.3419 26.4769C31.819 25.879 31.0347 25.2171 30.795 24.8968C30.4682 24.4698 30.5554 24.2989 30.795 23.9146C30.7732 23.9146 33.5183 20.1139 33.8016 18.8327Z" fill="white"/>
</mask>
<g mask="url(#mask0_2579_71)">
<rect width="48" height="48" fill="white"  />
</g>
</g>
<defs>
<clipPath id="clip0_2579_71">
<rect width="48" height="48" fill="white"/>
</clipPath>
</defs>
</svg>
