<svg width="48" height="48" viewBox="0 0 48 48" fill="none" xmlns="http://www.w3.org/2000/svg">
<g clip-path="url(#clip0_2579_65)">
<mask id="mask0_2579_65" style="mask-type:luminance" maskUnits="userSpaceOnUse" x="12" y="12" width="24" height="24">
<path d="M26.8231 28.3766C23.1182 28.3766 20.104 25.2593 20.103 21.4289C20.104 20.458 20.8687 19.6684 21.8058 19.6684C21.9022 19.6684 21.9975 19.6768 22.0888 19.6936C22.2896 19.7282 22.4803 19.7984 22.6557 19.9043C22.6811 19.92 22.6983 19.9452 22.7024 19.9746L23.0939 22.5257C23.0989 22.555 23.0898 22.5855 23.0705 22.6075C22.8545 22.8549 22.5787 23.0332 22.2714 23.1223L22.1233 23.1653L22.1791 23.3132C22.6841 24.6427 23.7125 25.7049 24.9996 26.2292L25.1426 26.2879L25.1842 26.1348C25.2704 25.8171 25.4428 25.5319 25.6821 25.3085C25.6994 25.2918 25.7227 25.2834 25.746 25.2834C25.7511 25.2834 25.7562 25.2834 25.7623 25.2844L28.2298 25.6892C28.2592 25.6944 28.2836 25.7112 28.2988 25.7374C28.4002 25.9188 28.4682 26.117 28.5026 26.3246C28.5189 26.4169 28.526 26.5144 28.526 26.6161C28.526 27.586 27.7623 28.3756 26.8231 28.3766Z" fill="white"/>
<path d="M33.3931 23.159C33.1933 20.825 32.1588 18.6597 30.4803 17.0628C28.7916 15.4564 26.6009 14.5714 24.3098 14.5714C19.2814 14.5714 15.1901 18.8013 15.1901 24C15.1901 25.7448 15.6556 27.4445 16.5369 28.925L14.5714 33.4233L20.8646 32.7302C21.9589 33.1937 23.1171 33.4286 24.3088 33.4286C24.6222 33.4286 24.9437 33.4118 25.2662 33.3772C25.5502 33.3457 25.8372 33.2996 26.1192 33.2409C30.3302 32.3611 33.4042 28.4972 33.4286 24.0503V24C33.4286 23.7169 33.4164 23.4338 33.392 23.1601L33.3931 23.159ZM21.107 30.7558L17.6252 31.1396L18.6648 28.7583L18.4568 28.47C18.4416 28.449 18.4264 28.428 18.4092 28.4039C17.5065 27.1152 17.0298 25.5927 17.0298 24.001C17.0298 19.8509 20.2956 16.4745 24.3098 16.4745C28.0705 16.4745 31.2582 19.508 31.5655 23.3803C31.5817 23.5879 31.5908 23.7966 31.5908 24.0021C31.5908 24.0608 31.5898 24.1185 31.5888 24.1803C31.5117 27.6521 29.1658 30.6006 25.8839 31.3514C25.6334 31.409 25.3768 31.4531 25.1212 31.4814C24.8555 31.5129 24.5826 31.5286 24.3119 31.5286C23.3473 31.5286 22.4102 31.3356 21.5248 30.954C21.4264 30.9131 21.3301 30.869 21.2398 30.824L21.108 30.7579L21.107 30.7558Z" fill="white"/>
</mask>
<g mask="url(#mask0_2579_65)">
<rect width="48" height="48" fill="white" fill-opacity="0.62"/>
</g>
</g>
<defs>
<clipPath id="clip0_2579_65">
<rect width="48" height="48" fill="white"/>
</clipPath>
</defs>
</svg>
